<svg xmlns="http://www.w3.org/2000/svg" xmlns:xlink="http://www.w3.org/1999/xlink" width="228.638" height="73.614" viewBox="0 0 228.638 73.614"><defs><style>.a{fill:none;}.b{clip-path:url(#a);}.c{fill:#fff;}.d{fill:#fff;}</style><clipPath id="a"><rect class="a" width="228.638" height="73.614"/></clipPath></defs><g transform="translate(114.319 36.807)"><g class="b" transform="translate(-114.319 -36.807)"><path class="c" d="M33.514,27.192a7.161,7.161,0,1,1-14.316,0,7.161,7.161,0,1,1,14.316,0" transform="translate(-7.934 -8.183)"/><path class="d" d="M.533,23.747A22.353,22.353,0,0,1,3.7,17,16.605,16.605,0,0,0,5.227,28.265,35.5,35.5,0,0,0,9.1,34.19c2.816,3.286,9.153,7.979,11.969,10.326l7.51,5.984s8.8,6.747,11.147,14.374a19.579,19.579,0,0,1,.059,9.035,19.009,19.009,0,0,1-3.52,6.747A15.426,15.426,0,0,0,35.09,69.393,37.49,37.49,0,0,0,31.1,63.35a76.027,76.027,0,0,0-9.27-8.1h0l-2.64-1.995-1.349-1c-2.053-1.467-6.043-4.635-6.043-4.635S2.939,40.409.592,32.782a18.818,18.818,0,0,1-.059-9.035" transform="translate(-0.005 -7.026)"/><path class="c" d="M52.288,16.076a14.844,14.844,0,0,0,.7-4.576c-.059-2.347-.645-3.52-2.816-5.632S48.123,3.99,47.419,2.875A6.4,6.4,0,0,1,46.832,0,7.51,7.51,0,0,0,45.6,4.107c.117,1.643.763,2.875,2.581,4.4a16.917,16.917,0,0,1,3.11,3.051c.821,1.056,1,4.518,1,4.518" transform="translate(-18.846 0)"/><path class="c" d="M47.952,19.8s.352,4.694-3.52,11.323S31.7,42.681,31.7,42.681l5.867,4.752s6.454-4.694,9.8-10.854a19.772,19.772,0,0,0,2.464-9.563A18.423,18.423,0,0,0,47.952,19.8" transform="translate(-13.102 -8.183)"/><path class="c" d="M21.869,74.676,16,70.1a19.6,19.6,0,0,0-3.99,7.158,21.121,21.121,0,0,0-.821,6.63,29.355,29.355,0,0,0,1.467,7.744,9.857,9.857,0,0,1,.411-4.224A25.345,25.345,0,0,1,15.18,82.6a49.951,49.951,0,0,1,6.688-7.92" transform="translate(-4.62 -28.972)"/><path class="c" d="M21.425,113.39a15.468,15.468,0,0,0,.939-5.4c-.176-2.405-.587-3.462-2.758-5.456s-2.757-2.758-3.051-3.7a9.915,9.915,0,0,1-.469-2.64s-2.7,5.1-.7,8.449,2.347,3.051,4.224,5.515a14.492,14.492,0,0,1,1.877,3.286" transform="translate(-6.054 -39.759)"/><path class="c" d="M107.924,56.826c0,4.811-3.931,7.92-8.742,7.92H87.8V37.7H98.419c4.752,0,8.566,3.051,8.566,7.744a6.747,6.747,0,0,1-2.347,5.28,6.982,6.982,0,0,1,3.344,6.1M93.96,43.508v4.811h4.4a2.405,2.405,0,1,0,0-4.811ZM101.7,56.416a2.464,2.464,0,0,0-2.581-2.581H93.96V59h5.163a2.464,2.464,0,0,0,2.581-2.581" transform="translate(-36.288 -15.581)"/><rect class="c" width="6.219" height="27.1" transform="translate(77.093 22.119)"/><path class="c" d="M151,50.881a13.963,13.963,0,1,1,4.089,9.992A14.081,14.081,0,0,1,151,50.881m22,0a7.921,7.921,0,1,0-15.841,0,7.921,7.921,0,1,0,15.841,0" transform="translate(-62.408 -15.209)"/><path class="c" d="M227.913,46.969a9.329,9.329,0,0,1-9.5,9.27H214.36V64.8H208.2V37.7h10.267a9.329,9.329,0,0,1,9.5,9.27m-6.219,0a3.286,3.286,0,0,0-3.286-3.462h-4.048V50.43h4.048a3.286,3.286,0,0,0,3.286-3.462" transform="translate(-86.049 -15.58)"/><path class="c" d="M259.388,60.523H249.355l-1.349,4.283H241.2L250.411,37.7h7.92l9.211,27.106h-6.806Zm-1.878-5.808-3.168-9.974-3.168,9.974Z" transform="translate(-99.687 -15.581)"/><path class="c" d="M301.953,55.888h-2.934v8.918H292.8V37.7h10.854a9.27,9.27,0,0,1,9.27,9.27,8.918,8.918,0,0,1-4.987,7.862l5.75,9.974h-6.63Zm-2.934-5.4h4.635a3.481,3.481,0,0,0,0-6.923h-4.635Z" transform="translate(-121.013 -15.581)"/><path class="c" d="M351.82,64.888,345.6,53.8l-2.288,2.64v8.449H336.8V37.9h6.512v9.563l7.8-9.563h8.1L350.06,48.813l9.5,16.076Z" transform="translate(-139.199 -15.664)"/><path class="c" d="M381.5,44.806a3.4,3.4,0,1,1,3.4-3.4,3.4,3.4,0,0,1-3.4,3.4m0-6.4A2.992,2.992,0,1,0,384.5,41.4a3.051,3.051,0,0,0-2.992-2.992" transform="translate(-156.268 -15.705)"/><path class="c" d="M381.6,41h1.525a1.232,1.232,0,0,1,.763.235.857.857,0,0,1,0,1.291l-.176.117h.059a.645.645,0,0,1,.293.587v.587a.528.528,0,0,0,.059.235l.117.117h-.528v-.763a.586.586,0,0,0-.176-.411.645.645,0,0,0-.469-.117h-1.056v1.408H381.6Zm.469,1.467h1.115a.645.645,0,0,0,.469-.117.587.587,0,0,0,.117-.411.528.528,0,0,0-.176-.411.7.7,0,0,0-.469-.117h-1.056Z" transform="translate(-157.714 -16.945)"/></g></g></svg>